<svg width="50" height="50" viewBox="0 0 50 50" fill="none" xmlns="http://www.w3.org/2000/svg">
<path d="M46.4286 26.9643C48.5714 24.8214 50 21.7857 50 18.75C50 12.6786 45.1786 7.67857 39.2857 7.14286C38.9286 3.03571 35.3571 0 31.25 0C28.75 0 26.4286 1.25 25 3.03571C23.5714 1.25 21.25 0 18.75 0C14.6429 0 11.25 3.21429 10.7143 7.14286C4.64286 7.5 0 12.6786 0 18.75C0 19.2857 -1.7296e-07 19.8214 0.178571 20.3571C0.178571 20.5357 0.178571 20.7143 0.178571 20.8929C0.178571 21.4286 0.357143 21.7857 0.535714 22.1429C0.535714 22.5 0.714286 22.6786 0.892857 23.0357C0.892857 23.2143 1.07143 23.3929 1.07143 23.3929C1.60714 24.8214 2.5 26.0714 3.57143 26.9643C2.5 28.75 1.96429 30.8929 1.96429 33.0357C1.96429 38.5714 5.89286 43.3929 11.25 44.4643C12.3214 47.6786 15.3571 50 18.9286 50C21.4286 50 23.75 48.75 25.1786 46.9643C26.6071 48.75 28.9286 50 31.4286 50C35 50 38.0357 47.6786 39.1071 44.4643C43.9286 43.5714 47.6786 39.4643 48.2143 34.6429C48.2143 34.4643 48.2143 34.1071 48.2143 33.9286C48.2143 33.75 48.2143 33.5714 48.2143 33.3929C48.2143 33.2143 48.2143 33.0357 48.2143 33.0357C48.2143 30.8929 47.6786 28.75 46.4286 26.9643ZM35.1786 24.4643L20.8929 38.75C20.5357 39.1071 20.1786 39.2857 19.6429 39.2857C19.2857 39.2857 18.9286 39.2857 18.75 39.1071C18.0357 38.75 17.6786 37.8571 18.0357 36.9643L20.8929 28.5714H16.0714C15.3571 28.5714 14.6429 28.0357 14.4643 27.5C14.1071 26.7857 14.2857 26.0714 14.8214 25.5357L30 11.25C30.5357 10.7143 31.6071 10.5357 32.3214 11.0714C33.0357 11.6071 33.2143 12.5 33.0357 13.2143L29.4643 21.4286H33.9286C34.6429 21.4286 35.3571 21.7857 35.5357 22.5C35.8929 23.2143 35.7143 23.9286 35.1786 24.4643Z" fill="#EC1721"/>
</svg>
