<svg width="56" height="56" viewBox="0 0 56 56" fill="none" xmlns="http://www.w3.org/2000/svg">
<path d="M28 56C43.464 56 56 43.464 56 28C56 12.536 43.464 0 28 0C12.536 0 0 12.536 0 28C0 43.464 12.536 56 28 56Z" fill="#EC1721"/>
<path d="M24.9498 35.9308H16.4095C15.7357 35.9308 15.1895 35.3845 15.1895 34.7108V13.97C15.1895 13.2962 15.7357 12.75 16.4095 12.75H31.05C31.7237 12.75 32.2701 13.2962 32.2701 13.97V21.2903C32.2701 21.9641 31.7237 22.5103 31.05 22.5103H26.1698V34.7108C26.1698 35.3845 25.6236 35.9308 24.9498 35.9308ZM17.6295 33.4907H23.7298V21.2903C23.7298 20.6165 24.276 20.0703 24.9498 20.0703H29.83V15.1901H17.6295V33.4907Z" fill="white"/>
<path d="M39.591 43.2511H24.9505C24.2767 43.2511 23.7305 42.7048 23.7305 42.0311V21.2904C23.7305 20.6165 24.2767 20.0703 24.9505 20.0703H39.591C40.2647 20.0703 40.8111 20.6165 40.8111 21.2904V42.0311C40.8111 42.7048 40.2647 43.2511 39.591 43.2511ZM26.1706 40.8111H38.371V22.5104H26.1706V40.8111Z" fill="white"/>
</svg>
