<svg width="57" height="56" viewBox="0 0 57 56" fill="none" xmlns="http://www.w3.org/2000/svg">
<path d="M19.1875 16.25C18.7966 16.558 18.4176 16.8896 18.0623 17.245C14.7222 20.5732 13.4785 25.536 14.5208 31.2213C14.7103 32.228 14.9828 33.223 15.3025 34.2179C16.7357 33.5783 21.7577 31.1621 26.5428 26.9691C23.2975 23.5698 21.1773 20.4784 19.1875 16.25Z" fill="#EC1721"/>
<path d="M35.2959 14.5695C32.927 13.7877 30.5463 13.3613 28.2604 13.3613C25.6309 13.3613 23.2384 13.9062 21.2012 14.9604C23.12 19.0822 25.1453 22.067 28.2841 25.3478C31.2096 22.4459 33.8628 18.8571 35.2959 14.5695Z" fill="#EC1721"/>
<path d="M56.4493 38.1267C55.4308 32.6072 52.3275 27.0286 47.7319 22.4329C44.6637 19.3646 41.1323 16.9735 37.5082 15.415C33.1319 28.3768 19.0857 35.1866 16.125 36.4497C17.683 40.1744 20.0984 43.7758 23.2378 46.9152C28.9231 52.6005 36.2074 55.9998 42.7099 55.9998C46.8436 55.9998 50.3733 54.6495 52.9198 52.103C56.248 48.7748 57.5035 43.812 56.4493 38.1267Z" fill="#EC1721"/>
<path d="M20.8342 14.1539L19.4365 11.0271C18.1455 8.1252 15.1371 6.37226 11.9865 6.65652C7.56855 7.07104 3.4941 4.26394 2.27409 0L0 0.651424C1.52789 6.00509 6.66837 9.51097 12.1997 9.01353C14.3553 8.81219 16.3926 10.0203 17.2691 11.9865L18.6667 15.1134C18.8443 15.5042 19.0102 15.8832 19.1879 16.2504C19.8156 15.7648 20.4907 15.3266 21.2014 14.9594C21.0829 14.6988 20.9527 14.4264 20.8342 14.1539Z" fill="#EC1721"/>
</svg>
