<svg width="48" height="56" viewBox="0 0 48 56" fill="none" xmlns="http://www.w3.org/2000/svg">
<path d="M38.0033 36.0058C36.6698 36.0037 35.3496 36.2704 34.1215 36.79C32.8934 37.3096 31.7827 38.0714 30.8557 39.0299L19.3345 31.6321C20.2338 29.2998 20.2338 26.7164 19.3345 24.3842L30.8557 16.9863C32.4764 18.644 34.623 19.6868 36.9278 19.9362C39.2326 20.1856 41.5525 19.6262 43.4904 18.3536C45.4282 17.0811 46.8636 15.1745 47.5507 12.9603C48.2379 10.7461 48.1342 8.36191 47.2573 6.21576C46.3804 4.06961 44.7849 2.29496 42.7438 1.19555C40.7028 0.0961458 38.3431 -0.259662 36.0686 0.189025C33.7941 0.637713 31.7463 1.863 30.2756 3.65517C28.8049 5.44734 28.0028 7.69497 28.0066 10.0134C28.0106 11.2522 28.2392 12.4801 28.6814 13.6373L17.1602 21.0352C15.7731 19.6101 13.9925 18.6311 12.0461 18.2234C10.0997 17.8157 8.0759 17.9978 6.23353 18.7464C4.39117 19.4951 2.81394 20.7762 1.70353 22.426C0.593124 24.0759 0 26.0194 0 28.0081C0 29.9969 0.593124 31.9404 1.70353 33.5902C2.81394 35.2401 4.39117 36.5212 6.23353 37.2698C8.0759 38.0185 10.0997 38.2006 12.0461 37.7929C13.9925 37.3852 15.7731 36.4062 17.1602 34.9811L28.6814 42.379C28.2392 43.5362 28.0106 44.7641 28.0066 46.0029C28.0066 47.9801 28.5929 49.913 29.6913 51.557C30.7898 53.201 32.3511 54.4824 34.1777 55.239C36.0044 55.9957 38.0144 56.1936 39.9536 55.8079C41.8927 55.4222 43.674 54.47 45.072 53.0719C46.4701 51.6738 47.4222 49.8925 47.8079 47.9532C48.1936 46.014 47.9957 44.0039 47.239 42.1772C46.4824 40.3504 45.2011 38.7891 43.5572 37.6906C41.9132 36.5921 39.9805 36.0058 38.0033 36.0058Z" fill="#EC1721"/>
</svg>
