<svg width="45" height="45" viewBox="0 0 45 45" fill="none" xmlns="http://www.w3.org/2000/svg">
<path d="M42.8605 21.4293C42.86 9.59407 33.2655 0 21.4303 0C9.59465 0 0 9.59467 0 21.4303C0 32.5428 8.45797 41.6797 19.2876 42.7549V38.8065C17.6204 37.4941 16.1196 34.7245 15.1331 31.0718H19.2876V27.8586H14.4412C14.1121 25.8653 13.9275 23.7005 13.9275 21.4303C13.9275 19.9506 14.0059 18.5156 14.1517 17.1436H28.7088C28.8545 18.5152 28.9329 19.9497 28.9329 21.4293H32.147C32.147 19.9639 32.0776 18.5304 31.9436 17.1435L39.1388 17.1417C39.4705 18.5167 39.6464 19.9523 39.6464 21.4293H42.8572H42.8605ZM5.97248 31.0727L11.806 31.0731L12.0232 31.9195C12.7025 34.4251 13.626 36.624 14.745 38.3808C11.0974 36.9409 8.02592 34.3576 5.97248 31.0727ZM3.72263 17.1435H10.917C10.783 18.5308 10.7135 19.9647 10.7135 21.4303C10.7135 23.6643 10.8751 25.8246 11.18 27.8582L4.38087 27.8591C3.62668 25.8599 3.21404 23.6932 3.21404 21.4303C3.21404 19.9669 3.38657 18.5439 3.71245 17.1803L3.72263 17.1435ZM14.6982 4.49842L14.7473 4.47975C13.199 6.90582 12.0273 10.1754 11.3559 13.9311L4.82469 13.9303C6.76312 9.64521 10.3115 6.24409 14.6982 4.49842ZM21.1824 3.2254L21.4303 3.21404L21.7009 3.22758C24.4041 3.4975 27.0122 7.78032 28.2254 13.9302H14.6352C15.8516 7.76305 18.471 3.47344 21.1824 3.2254ZM28.3443 4.8529L28.1155 4.47988L28.7395 4.73973C32.8599 6.54673 36.1832 9.83476 38.0358 13.9303L31.5046 13.9311C30.8672 10.3647 29.7782 7.23659 28.3443 4.8529Z" fill="url(#paint0_linear_11780_3159)"/>
<path d="M21.4304 36.4279C21.4304 37.6111 22.3896 38.5706 23.5731 38.5706H30.0011V42.856H28.9298C28.338 42.856 27.8584 43.3356 27.8584 43.9274C27.8584 44.519 28.338 44.9987 28.9298 44.9987H37.5006C38.0922 44.9987 38.5719 44.519 38.5719 43.9274C38.5719 43.3356 38.0922 42.856 37.5006 42.856H36.4292V38.5706H42.8573C44.0405 38.5706 45 37.6111 45 36.4279V25.7145C45 24.5311 44.0405 23.5718 42.8573 23.5718H23.5731C22.3896 23.5718 21.4304 24.5311 21.4304 25.7145V36.4279Z" fill="url(#paint1_linear_11780_3159)"/>
<defs>
<linearGradient id="paint0_linear_11780_3159" x1="42.8605" y1="38.6085" x2="0.333759" y2="34.841" gradientUnits="userSpaceOnUse">
<stop stop-color="#261B97"/>
<stop offset="1" stop-color="#913DC4"/>
</linearGradient>
<linearGradient id="paint1_linear_11780_3159" x1="45" y1="42.9208" x2="21.651" y2="40.651" gradientUnits="userSpaceOnUse">
<stop stop-color="#261B97"/>
<stop offset="1" stop-color="#913DC4"/>
</linearGradient>
</defs>
</svg>
