<svg width="43" height="43" viewBox="0 0 43 43" fill="none" xmlns="http://www.w3.org/2000/svg">
<path d="M39.0583 9.31667C35.2958 3.58333 28.8458 0 21.5 0C9.675 0 0 9.675 0 21.5H3.58333C3.58333 11.6458 11.6458 3.58333 21.5 3.58333C27.7708 3.58333 33.325 6.80833 36.55 11.825L32.25 16.125H43V5.375L39.0583 9.31667Z" fill="url(#paint0_linear_11780_3120)"/>
<path d="M7.16667 23.2913C8.15618 23.2913 8.95833 22.4892 8.95833 21.4997C8.95833 20.5102 8.15618 19.708 7.16667 19.708C6.17716 19.708 5.375 20.5102 5.375 21.4997C5.375 22.4892 6.17716 23.2913 7.16667 23.2913Z" fill="url(#paint1_linear_11780_3120)"/>
<path d="M11.2875 13.0794C12.277 13.0794 13.0791 12.2773 13.0791 11.2878C13.0791 10.2983 12.277 9.49609 11.2875 9.49609C10.2979 9.49609 9.49579 10.2983 9.49579 11.2878C9.49579 12.2773 10.2979 13.0794 11.2875 13.0794Z" fill="url(#paint2_linear_11780_3120)"/>
<path d="M31.7125 13.0794C32.702 13.0794 33.5042 12.2773 33.5042 11.2878C33.5042 10.2983 32.702 9.49609 31.7125 9.49609C30.723 9.49609 29.9208 10.2983 29.9208 11.2878C29.9208 12.2773 30.723 13.0794 31.7125 13.0794Z" fill="url(#paint3_linear_11780_3120)"/>
<path d="M35.8333 23.2913C36.8228 23.2913 37.625 22.4892 37.625 21.4997C37.625 20.5102 36.8228 19.708 35.8333 19.708C34.8438 19.708 34.0416 20.5102 34.0416 21.4997C34.0416 22.4892 34.8438 23.2913 35.8333 23.2913Z" fill="url(#paint4_linear_11780_3120)"/>
<path d="M30.2792 32.9667C30.9958 33.6834 32.0708 33.6834 32.7875 32.9667C33.5042 32.2501 33.5042 31.1751 32.7875 30.4584C32.0708 29.7417 30.9958 29.7417 30.2792 30.4584C29.7417 30.9959 29.7417 32.2501 30.2792 32.9667Z" fill="url(#paint5_linear_11780_3120)"/>
<path d="M21.5 37.6253C22.4896 37.6253 23.2917 36.8232 23.2917 35.8337C23.2917 34.8441 22.4896 34.042 21.5 34.042C20.5105 34.042 19.7084 34.8441 19.7084 35.8337C19.7084 36.8232 20.5105 37.6253 21.5 37.6253Z" fill="url(#paint6_linear_11780_3120)"/>
<path d="M10.0333 30.2791C9.31662 30.9958 9.31662 32.0708 10.0333 32.7874C10.75 33.5041 11.825 33.5041 12.5416 32.7874C13.2583 32.0708 13.2583 30.9958 12.5416 30.2791C12.0041 29.7416 10.75 29.7416 10.0333 30.2791Z" fill="url(#paint7_linear_11780_3120)"/>
<path d="M21.5 5.375C20.425 5.375 19.7083 6.09167 19.7083 7.16667V18.4542C18.6333 18.9917 17.9166 20.2458 17.9166 21.5C17.9166 23.4708 19.5291 25.0833 21.5 25.0833C21.8583 25.0833 22.0375 25.0833 22.3958 24.9042L25.2625 27.7708C25.9791 28.4875 27.0541 28.4875 27.7708 27.7708C28.4875 27.0542 28.4875 25.9792 27.7708 25.2625L24.9041 22.3958C24.9041 22.0375 25.0833 21.8583 25.0833 21.5C25.0833 20.2458 24.3666 18.9917 23.2916 18.4542V7.16667C23.2916 6.09167 22.575 5.375 21.5 5.375ZM19.7083 21.5C19.7083 20.425 20.425 19.7083 21.5 19.7083C22.575 19.7083 23.2916 20.425 23.2916 21.5C23.2916 22.575 22.575 23.2917 21.5 23.2917C21.3208 23.2917 20.9625 23.2917 20.7833 23.1125C20.6041 22.9333 20.425 22.9333 20.2458 22.7542C19.8875 22.3958 19.7083 22.0375 19.7083 21.5Z" fill="url(#paint8_linear_11780_3120)"/>
<path d="M21.5 39.4167C15.2292 39.4167 9.675 36.1917 6.45 31.175L10.75 26.875H0V37.625L3.94167 33.6833C7.70417 39.2375 14.1542 43 21.5 43C33.325 43 43 33.325 43 21.5H39.4167C39.4167 31.3542 31.3542 39.4167 21.5 39.4167Z" fill="url(#paint9_linear_11780_3120)"/>
<defs>
<linearGradient id="paint0_linear_11780_3120" x1="43" y1="19.4149" x2="1.30258" y2="12.0451" gradientUnits="userSpaceOnUse">
<stop stop-color="#261B97"/>
<stop offset="1" stop-color="#913DC4"/>
</linearGradient>
<linearGradient id="paint1_linear_11780_3120" x1="8.95833" y1="22.9438" x2="5.40277" y2="22.6296" gradientUnits="userSpaceOnUse">
<stop stop-color="#261B97"/>
<stop offset="1" stop-color="#913DC4"/>
</linearGradient>
<linearGradient id="paint2_linear_11780_3120" x1="13.0791" y1="12.7319" x2="9.52356" y2="12.4177" gradientUnits="userSpaceOnUse">
<stop stop-color="#261B97"/>
<stop offset="1" stop-color="#913DC4"/>
</linearGradient>
<linearGradient id="paint3_linear_11780_3120" x1="33.5042" y1="12.7319" x2="29.9486" y2="12.4177" gradientUnits="userSpaceOnUse">
<stop stop-color="#261B97"/>
<stop offset="1" stop-color="#913DC4"/>
</linearGradient>
<linearGradient id="paint4_linear_11780_3120" x1="37.625" y1="22.9438" x2="34.0694" y2="22.6296" gradientUnits="userSpaceOnUse">
<stop stop-color="#261B97"/>
<stop offset="1" stop-color="#913DC4"/>
</linearGradient>
<linearGradient id="paint5_linear_11780_3120" x1="33.325" y1="33.1567" x2="29.9008" y2="32.8655" gradientUnits="userSpaceOnUse">
<stop stop-color="#261B97"/>
<stop offset="1" stop-color="#913DC4"/>
</linearGradient>
<linearGradient id="paint6_linear_11780_3120" x1="23.2917" y1="37.2778" x2="19.7361" y2="36.9636" gradientUnits="userSpaceOnUse">
<stop stop-color="#261B97"/>
<stop offset="1" stop-color="#913DC4"/>
</linearGradient>
<linearGradient id="paint7_linear_11780_3120" x1="13.0791" y1="32.9905" x2="9.52574" y2="32.6642" gradientUnits="userSpaceOnUse">
<stop stop-color="#261B97"/>
<stop offset="1" stop-color="#913DC4"/>
</linearGradient>
<linearGradient id="paint8_linear_11780_3120" x1="28.3083" y1="26.0843" x2="17.9333" y2="25.6688" gradientUnits="userSpaceOnUse">
<stop stop-color="#261B97"/>
<stop offset="1" stop-color="#913DC4"/>
</linearGradient>
<linearGradient id="paint9_linear_11780_3120" x1="43" y1="40.9149" x2="1.30258" y2="33.5451" gradientUnits="userSpaceOnUse">
<stop stop-color="#261B97"/>
<stop offset="1" stop-color="#913DC4"/>
</linearGradient>
</defs>
</svg>
