<svg width="46" height="49" viewBox="0 0 46 49" fill="none" xmlns="http://www.w3.org/2000/svg">
<path d="M3.03176 34.2156C3.27096 34.035 3.51249 33.9154 3.81266 33.7958C2.67301 31.214 2.0117 28.332 2.0117 25.3301C2.0117 15.4249 8.91537 7.13988 18.1009 4.85806C18.0399 4.61887 18.0399 4.31871 18.0399 4.07717V4.0162C18.0399 3.71604 18.1009 3.41588 18.1595 3.11572C7.95406 5.33642 0.330605 14.4606 0.330605 25.3275C0.330605 28.6903 1.05051 31.8698 2.37073 34.7519C2.49267 34.5761 2.79282 34.3955 3.03204 34.2149L3.03176 34.2156Z" fill="url(#paint0_linear_11780_3071)"/>
<path d="M34.5485 42.9204C31.2468 45.0825 27.2859 46.4027 23.023 46.4027C18.7601 46.4027 14.7992 45.1411 11.4975 42.9204H8.55687C12.5199 46.1612 17.5617 48.0841 23.0258 48.0841C28.4896 48.0841 33.5926 46.1636 37.4946 42.9204H34.5485Z" fill="url(#paint1_linear_11780_3071)"/>
<path d="M28.0063 4.0805C28.0063 4.38066 28.0063 4.61985 27.9453 4.86139C37.1914 7.14309 44.0344 15.4258 44.0344 25.3311C44.0344 28.3327 43.3731 31.2147 42.2335 33.7968C42.4727 33.9164 42.7728 34.0969 43.0144 34.2165C43.2536 34.3971 43.4951 34.5167 43.7343 34.6973C45.0545 31.8152 45.7744 28.6328 45.7744 25.2728C45.7744 14.4059 38.151 5.28162 27.9455 3.06104C28.0065 3.36119 28.0065 3.66135 28.0651 3.96151C28.0065 4.02014 28.0065 4.08111 28.0065 4.08111L28.0063 4.0805Z" fill="url(#paint2_linear_11780_3071)"/>
<path d="M23.023 9.4834C20.202 9.4834 17.6201 10.8036 15.9999 13.0853L15.6387 13.566C15.0384 14.4055 14.9774 15.4866 15.3995 16.3871C15.8803 17.2875 16.7808 17.8879 17.8008 17.8879H28.1869C29.207 17.8879 30.1075 17.3485 30.5882 16.3871C31.0689 15.4866 31.008 14.4055 30.349 13.566L29.9879 13.0853C28.4261 10.8036 25.8443 9.4834 23.023 9.4834Z" fill="url(#paint3_linear_11780_3071)"/>
<path d="M23.2022 8.28251C25.3034 8.28251 27.0433 6.72072 27.3435 4.74158C27.4044 4.56102 27.4044 4.32183 27.4044 4.14127V3.90207C27.4044 3.60191 27.3435 3.30175 27.2239 3.0016C26.7432 1.26163 25.1228 0 23.2022 0C21.2817 0 19.7199 1.26163 19.1806 3.0016C19.1196 3.30175 19.061 3.60191 19 3.90207V4.14127C19 4.38046 19 4.56102 19.061 4.74158C19.3611 6.72078 21.1011 8.28251 23.2022 8.28251Z" fill="url(#paint4_linear_11780_3071)"/>
<path d="M10.2968 42.0807H13.1179C14.1379 42.0807 15.0384 41.5414 15.5191 40.5799C15.9999 39.6185 15.9389 38.5984 15.2799 37.7589L14.9188 37.2782C13.2984 34.9965 10.7166 33.6763 7.89568 33.6763C6.51446 33.6763 5.25523 33.9764 4.11319 34.5767C3.87399 34.6963 3.57383 34.8769 3.33229 34.9965C3.0931 35.1771 2.85157 35.2967 2.61239 35.4772C1.95108 35.958 1.35076 36.5583 0.872423 37.2782L0.511295 37.7589C-0.0890242 38.5984 -0.150016 39.6795 0.272104 40.5799C0.691859 41.4804 1.65332 42.0807 2.67338 42.0807H10.2968Z" fill="url(#paint5_linear_11780_3071)"/>
<path d="M12.156 28.3321C12.156 30.6537 10.2753 32.5344 7.95379 32.5344C5.63458 32.5344 3.75156 30.6537 3.75156 28.3321C3.75156 26.0129 5.63458 24.1299 7.95379 24.1299C10.2753 24.1299 12.156 26.0129 12.156 28.3321Z" fill="url(#paint6_linear_11780_3071)"/>
<path d="M45.4737 37.7594L45.1126 37.2787C44.6319 36.5588 44.0315 35.9585 43.3726 35.4777C43.1334 35.2972 42.8919 35.1166 42.6527 34.997C42.4135 34.8164 42.172 34.6968 41.8718 34.5772C40.7322 34.0379 39.4096 33.6768 38.0893 33.6768C35.2683 33.6768 32.6865 34.997 31.0662 37.2787L30.7051 37.7594C30.1048 38.5989 30.0438 39.6799 30.4659 40.5804C30.8856 41.4809 31.8471 42.0812 32.8672 42.0812H43.2533C44.2734 42.0812 45.1738 41.5419 45.6546 40.5804C46.1963 39.6799 46.074 38.5989 45.4737 37.7594Z" fill="url(#paint7_linear_11780_3071)"/>
<path d="M39.7383 24.449C41.8816 25.3377 42.8993 27.7953 42.0106 29.9386C41.1242 32.0842 38.6643 33.102 36.521 32.2133C34.3777 31.3268 33.3576 28.867 34.2463 26.7236C35.1351 24.5803 37.5926 23.5603 39.7383 24.449Z" fill="url(#paint8_linear_11780_3071)"/>
<defs>
<linearGradient id="paint0_linear_11780_3071" x1="18.1595" y1="31.6839" x2="0.374715" y2="30.7981" gradientUnits="userSpaceOnUse">
<stop stop-color="#261B97"/>
<stop offset="1" stop-color="#913DC4"/>
</linearGradient>
<linearGradient id="paint1_linear_11780_3071" x1="37.4946" y1="47.5833" x2="14.2565" y2="36.0747" gradientUnits="userSpaceOnUse">
<stop stop-color="#261B97"/>
<stop offset="1" stop-color="#913DC4"/>
</linearGradient>
<linearGradient id="paint2_linear_11780_3071" x1="45.7744" y1="31.6292" x2="27.9894" y2="30.7434" gradientUnits="userSpaceOnUse">
<stop stop-color="#261B97"/>
<stop offset="1" stop-color="#913DC4"/>
</linearGradient>
<linearGradient id="paint3_linear_11780_3071" x1="30.9034" y1="17.0728" x2="15.5499" y2="14.5259" gradientUnits="userSpaceOnUse">
<stop stop-color="#261B97"/>
<stop offset="1" stop-color="#913DC4"/>
</linearGradient>
<linearGradient id="paint4_linear_11780_3071" x1="27.4044" y1="7.47927" x2="19.067" y2="6.73163" gradientUnits="userSpaceOnUse">
<stop stop-color="#261B97"/>
<stop offset="1" stop-color="#913DC4"/>
</linearGradient>
<linearGradient id="paint5_linear_11780_3071" x1="15.8343" y1="41.2657" x2="0.42711" y2="38.7004" gradientUnits="userSpaceOnUse">
<stop stop-color="#261B97"/>
<stop offset="1" stop-color="#913DC4"/>
</linearGradient>
<linearGradient id="paint6_linear_11780_3071" x1="12.156" y1="31.7193" x2="3.81668" y2="30.9823" gradientUnits="userSpaceOnUse">
<stop stop-color="#261B97"/>
<stop offset="1" stop-color="#913DC4"/>
</linearGradient>
<linearGradient id="paint7_linear_11780_3071" x1="46" y1="41.2662" x2="30.6187" y2="38.7097" gradientUnits="userSpaceOnUse">
<stop stop-color="#261B97"/>
<stop offset="1" stop-color="#913DC4"/>
</linearGradient>
<linearGradient id="paint8_linear_11780_3071" x1="42.332" y1="31.7193" x2="33.9904" y2="30.9822" gradientUnits="userSpaceOnUse">
<stop stop-color="#261B97"/>
<stop offset="1" stop-color="#913DC4"/>
</linearGradient>
</defs>
</svg>
