<svg width="45" height="47" viewBox="0 0 45 47" fill="none" xmlns="http://www.w3.org/2000/svg">
<path d="M5.09767 12.0296C4.86807 12.344 4.64698 12.6647 4.43655 12.9897L5.38893 13.61C5.59088 13.2998 5.80134 12.9961 6.01815 12.6987L5.09767 12.0296ZM35.3529 45.1928H39.4834V36.4642H35.3529V45.1928ZM30.0447 45.1928H34.173V40.0883H30.0447V45.1928ZM12.8104 7.01192H11.6157C11.8729 8.15053 12.8678 8.97048 14.0349 9.00659C15.2041 9.04057 16.2457 8.28224 16.571 7.16065C16.8963 6.03906 16.4201 4.84101 15.4146 4.24832C14.409 3.65351 13.1293 3.81497 12.3023 4.6413C11.96 4.97905 11.7219 5.40817 11.6157 5.87758H12.8104C12.8784 5.71402 12.9783 5.56744 13.1059 5.44424C13.5119 5.04063 14.1199 4.91955 14.6492 5.13835C15.1786 5.35714 15.523 5.87335 15.523 6.44684C15.523 7.01827 15.1786 7.53445 14.6492 7.75322C14.1199 7.97414 13.5119 7.85306 13.1059 7.44733C12.9783 7.32413 12.8784 7.17756 12.8104 7.01611V7.01192ZM10.219 7.01192H9.07312H9.07525C9.37712 9.68634 11.7135 11.6576 14.4026 11.5068C17.0897 11.356 19.1922 9.134 19.1922 6.44473C19.1922 3.75547 17.0897 1.53355 14.4026 1.3827C11.7135 1.23188 9.37712 3.20319 9.07525 5.87755H10.2211C10.5187 3.84041 12.3384 2.38106 14.392 2.52979C16.4477 2.67849 18.0357 4.38639 18.0357 6.44473C18.0357 8.50313 16.4477 10.211 14.392 10.3597C12.3385 10.5084 10.5187 9.049 10.2211 7.01192H10.219ZM7.68923 7.01192H5.42947C5.39971 7.01192 5.36995 7.0098 5.34231 7.00555C5.09784 7.74691 4.40479 8.25036 3.62248 8.25249H1.81975V7.00979H0.567619C0.255118 7.00979 0 6.75701 0 6.4426C0 6.1282 0.255102 5.87542 0.567619 5.87542H1.81975V4.6306H3.6246C4.40479 4.63485 5.0978 5.13617 5.34226 5.87754C5.3699 5.87329 5.39966 5.87117 5.42942 5.87117H7.6913C7.99529 2.44054 10.9502 -0.144372 14.3939 0.006261C17.8399 0.159205 20.5522 2.99505 20.5522 6.44053C20.5522 9.88388 17.8397 12.7198 14.3939 12.8726C10.95 13.0234 7.99497 10.4382 7.6913 7.00771L7.68923 7.01192ZM40.6612 45.1928H44.796V32.6196H40.6633V45.1928H40.6612ZM31.7665 10.725C31.318 10.281 30.6483 10.1472 30.0658 10.3894C29.4834 10.6294 29.1028 11.1945 29.0986 11.8253V33.3925C29.1156 34.2422 29.8108 34.9241 30.6611 34.9241C31.5136 34.9241 32.2087 34.2422 32.2236 33.3925V11.8253C32.2236 11.4111 32.0577 11.016 31.7665 10.725ZM17.5831 29.3181H12.9913V35.2195H15.2468L17.5831 29.3181ZM9.96406 19.3192C8.3633 19.5954 7.1941 20.9846 7.1941 22.6076C7.1941 24.2305 8.3633 25.6197 9.96406 25.8959V19.3192ZM22.7869 16.8721C22.8337 17.0123 22.8549 17.161 22.8549 17.3118V27.9051C22.8549 28.0517 22.8337 28.2004 22.7869 28.3406L27.9655 31.3251L27.9633 13.8854L22.7869 16.8721ZM21.4434 17.0336H11.3797C11.3053 17.0336 11.2351 17.0633 11.1841 17.1164C11.1331 17.1674 11.1054 17.2375 11.1054 17.3119V27.9051C11.1054 27.9773 11.1331 28.0474 11.1841 28.0984C11.2351 28.1515 11.3053 28.1813 11.3797 28.1813H21.4434C21.5156 28.1813 21.5837 28.1515 21.6347 28.0984C21.6857 28.0474 21.7155 27.9773 21.7176 27.9051V17.3119C21.7155 17.2375 21.6857 17.1674 21.6347 17.1164C21.5837 17.0633 21.5156 17.0336 21.4434 17.0336ZM33.365 16.7277V28.4852C36.3922 28.1878 38.7009 25.6451 38.7009 22.6056C38.7009 19.5659 36.3922 17.023 33.365 16.7277ZM3.8243 13.9874C3.63298 14.323 3.4459 14.6651 3.2716 15.0113L4.28564 15.5275C4.45146 15.1961 4.63002 14.8753 4.81285 14.5546L3.8243 13.9874ZM2.76988 16.067C2.61044 16.4239 2.46376 16.7808 2.32558 17.144L3.39061 17.5476C3.52029 17.2035 3.66059 16.8615 3.8094 16.5238L2.76988 16.067ZM1.94082 18.2486C1.82177 18.6203 1.71123 18.9921 1.61556 19.3702L2.71673 19.657C2.81027 19.3001 2.91231 18.9432 3.02286 18.5927L1.94082 18.2486ZM1.34986 20.5066C1.2712 20.889 1.20104 21.2713 1.14365 21.6558L2.27034 21.8279C2.32349 21.4604 2.38939 21.0993 2.46592 20.7403L1.34986 20.5066ZM0.999091 22.8157C0.962951 23.2044 0.933192 23.591 0.920435 23.9797L2.05774 24.0307C2.07262 23.659 2.10026 23.2915 2.13427 22.924L0.999091 22.8157ZM0.89705 25.1481V25.2564L0.901302 25.3966V25.5411L0.907679 25.6813L0.911931 25.8215L0.918309 25.9617L0.92256 26.1019L0.93319 26.2421L0.937441 26.31L2.0705 26.2378L2.06625 26.1762L2.05987 26.0424L2.05562 25.9086L2.04924 25.7747L2.04074 25.5071L2.03649 25.3711L2.03224 25.2373V25.129L0.89705 25.1481ZM1.03735 27.4741L1.05649 27.6398L1.07349 27.7757L1.09263 27.9117L1.10963 28.0519L1.12664 28.1878L1.1479 28.3259L1.16916 28.4597L1.19467 28.6318L2.31712 28.4406L2.29161 28.2855L2.27247 28.156L2.25122 28.0264L2.23208 27.8968L2.21508 27.7672L2.19594 27.6334L2.18106 27.5038L2.16406 27.3488L1.03735 27.4741ZM1.41788 29.7746L1.45827 29.9467L1.49016 30.0805L1.5178 30.2144L1.55394 30.3482L1.58582 30.4778L1.61771 30.6116L1.65385 30.7412L1.70062 30.9132L2.7933 30.6031L2.75291 30.448L2.71677 30.3227L2.68488 30.1995L2.65512 30.0742L2.62323 29.9488L2.59135 29.8214L2.56371 29.696L2.52757 29.5325L1.41788 29.7746ZM2.04711 32.0199L2.09813 32.1644L2.14064 32.2897L2.18741 32.4172L2.22993 32.5468L2.2767 32.6721L2.32772 32.7974L2.37449 32.9206L2.42126 33.046L2.44889 33.1139L3.50544 32.6912L3.47993 32.6254L3.38639 32.3874L3.30135 32.1495L3.25458 32.0306L3.21419 31.9074L3.17168 31.7884L3.12491 31.6525L2.04711 32.0199ZM2.9123 34.1909L2.9527 34.2801L3.01009 34.3991L3.06749 34.5223L3.12489 34.6412L3.18654 34.7602L3.24394 34.8834L3.30559 35.0024L3.36724 35.1171L3.42889 35.236L4.43444 34.7028L4.37704 34.5945L4.31964 34.4819L4.20484 34.2525L4.1517 34.1378L4.0943 34.0231L4.04115 33.9084L3.98375 33.7937L3.94336 33.7066L2.9123 34.1909ZM4.00074 36.2514L4.08365 36.3916L4.15592 36.5063L4.22395 36.621L4.29623 36.7336L4.36426 36.8483L4.43653 36.9631L4.51306 37.0756L4.58534 37.1903L4.62573 37.2519L5.5675 36.6147L5.46333 36.4553L5.3953 36.3513L5.32728 36.2429L5.25925 36.1388L5.19335 36.0305L5.12532 35.9222L5.06154 35.8096L4.97864 35.6715L4.00074 36.2514ZM5.30387 38.1908L5.35489 38.2567L5.43355 38.365L5.51645 38.4691L5.59511 38.5732L5.67801 38.673L5.84383 38.8812L5.92674 38.9811L6.02665 39.1L6.89615 38.3671L6.80261 38.2546L6.6453 38.0591L6.56876 37.9614L6.49011 37.8637L6.41358 37.7617L6.33492 37.664L6.25839 37.5642L6.20737 37.4962L5.30387 38.1908ZM6.80259 39.9795L6.894 40.0772L6.98329 40.1749L7.07683 40.2684L7.16824 40.3661L7.44885 40.6465L7.54239 40.7357L7.62105 40.8122L8.41185 39.9986L8.33532 39.9264L8.24604 39.835L8.15887 39.7479L8.06746 39.6587L7.9803 39.5674L7.89314 39.4781L7.80173 39.3868L7.71882 39.2976L7.63166 39.2041L6.80259 39.9795ZM8.47987 41.6024L8.6138 41.7213L8.71584 41.8042L8.81575 41.8913L8.91992 41.9741L9.01983 42.0612L9.124 42.1441L9.22391 42.2269L9.3791 42.3459L10.0764 41.4473L9.93605 41.3326L9.83614 41.254L9.64056 41.0968L9.54702 41.0182L9.44922 40.9354L9.35143 40.8568L9.22388 40.7421L8.47987 41.6024ZM10.3208 43.0405L10.3974 43.0936L10.5122 43.1658L10.6206 43.2423L10.8438 43.391L11.1882 43.6076L11.3158 43.6841L11.911 42.7176L11.7962 42.6454L11.6878 42.5817L11.4795 42.4457L11.3753 42.3735L11.2711 42.3055L11.0628 42.1611L10.9714 42.1058L10.3208 43.0405ZM12.3021 44.2725L12.4361 44.3447L12.5551 44.4106L12.6699 44.4722L13.1461 44.7186L13.2651 44.776L13.3417 44.8121L13.837 43.7882L13.769 43.7563L13.6542 43.699L13.5394 43.6459L13.3098 43.5312L13.195 43.4696L13.0802 43.4122L12.9718 43.3506L12.8421 43.2826L12.3021 44.2725ZM14.4067 45.2921L14.4896 45.324L14.6129 45.375L14.7384 45.426L14.8617 45.4769L14.9871 45.5279L15.1125 45.5747L15.2401 45.6214L15.3655 45.6681L15.493 45.7149L15.8799 44.6442L15.7609 44.6017L15.6376 44.5593L15.5186 44.5125L15.3995 44.47L15.1614 44.3766L15.0466 44.3256L14.9276 44.2789L14.8447 44.2427L14.4067 45.2921ZM16.6049 46.0781L16.7813 46.1312L16.911 46.1673L17.0449 46.2034L17.1746 46.2395L17.3085 46.2757L17.4382 46.3118L17.5721 46.3436L17.7337 46.384L17.9973 45.2772L17.8485 45.2411L17.7209 45.2093L17.5955 45.1774L17.4722 45.1455L17.3447 45.1094L17.2214 45.0776L17.0959 45.0415L16.9237 44.9905L16.6049 46.0781ZM18.8753 46.6304L19.0475 46.6622L19.1835 46.6835L19.3175 46.709L19.5896 46.7515L19.7278 46.7685L19.8638 46.7897L20.0254 46.8109L20.1699 45.683L20.0211 45.6617L19.8915 45.6448L19.7618 45.6256L19.3728 45.5619L19.0794 45.5131L18.8753 46.6304ZM21.1925 46.9363L21.2562 46.9405L21.3923 46.9511L21.5326 46.9618L21.6729 46.9703L21.8132 46.9766L21.9535 46.9851L22.0938 46.9915L22.2384 46.9958L22.3532 47L22.3808 45.8636L22.2724 45.8593L22.1363 45.8508L22.0024 45.8466L21.8685 45.8381L21.7346 45.8317L21.6006 45.8232L21.4667 45.8126L21.2711 45.7977L21.1925 46.9363ZM23.5224 46.9979C23.9114 46.9873 24.3004 46.9703 24.6873 46.9363L24.6002 45.8041C24.2324 45.8338 23.8604 45.8508 23.4926 45.8614L23.5224 46.9979ZM25.8502 46.8173C26.2371 46.7663 26.6219 46.7047 27.0045 46.6325L26.7962 45.5173C26.4348 45.5853 26.067 45.6447 25.7035 45.6893L25.8502 46.8173ZM44.4069 30.0845L44.4281 29.9911L43.3206 29.7319L43.2993 29.8232L44.4069 30.0845ZM44.662 28.844C44.73 28.4616 44.7874 28.075 44.8384 27.6905L43.7096 27.5546C43.6629 27.9221 43.6097 28.2832 43.5438 28.6464L44.662 28.844ZM44.949 26.5286C44.9745 26.1399 44.9915 25.7533 45 25.3645L43.8605 25.3433C43.852 25.715 43.8393 26.0825 43.8138 26.45L44.949 26.5286ZM44.9894 24.1962L44.983 24.0156L44.9745 23.8776L44.9702 23.7437L44.9596 23.6078L44.9511 23.474L44.9405 23.3401L44.9341 23.2063L44.915 23.03L43.7819 23.132L43.7968 23.2934L43.8074 23.423L43.8159 23.5483L43.8265 23.6779L43.8351 23.8032L43.8393 23.9328L43.8457 24.0602L43.8542 24.2366L44.9894 24.1962ZM44.7874 21.8702L44.7704 21.7449L44.7491 21.6153L44.7321 21.4857L44.7109 21.3519L44.6684 21.0927L44.6173 20.8336L44.5961 20.7189L43.4821 20.9376L43.4991 21.0417L43.5247 21.1649L43.5672 21.4113L43.5884 21.5367L43.6054 21.6599L43.6267 21.7852L43.6458 21.9084L43.6628 22.0359L44.7874 21.8702ZM44.341 19.5803L44.3006 19.421L44.2645 19.2956L44.2326 19.1682L44.1964 19.0429L44.1645 18.9154L44.1284 18.7922L44.088 18.6669L44.0519 18.5394L44.0264 18.4523L42.9379 18.7922L42.9634 18.8708L43.0357 19.1087L43.0676 19.2277L43.1037 19.3466L43.1675 19.5845L43.1973 19.7035L43.2377 19.8543L44.341 19.5803ZM43.6544 17.3519L43.597 17.1926L43.5502 17.0694L43.4566 16.8315L43.4099 16.7168L43.3589 16.5936L43.3078 16.4746L43.2568 16.3599L43.2207 16.2707L42.1747 16.7211L42.2109 16.8039L42.398 17.2627L42.483 17.4921L42.5298 17.6069L42.585 17.7577L43.6544 17.3519ZM42.7317 15.2065L42.6637 15.0748L42.5489 14.8454L42.4873 14.7307L42.4299 14.6159L42.2449 14.2718L42.1833 14.1635L41.1905 14.7221L41.2479 14.822L41.3053 14.9261L41.3627 15.0344L41.4201 15.1385L41.4775 15.2468L41.5328 15.3552L41.5902 15.4635L41.6433 15.5718L41.7092 15.6993L42.7317 15.2065ZM41.5859 13.1736L41.5285 13.0801L41.4605 12.9718L41.3924 12.8677L41.3202 12.7594L41.2479 12.6553L41.1799 12.5512L41.1076 12.4471L41.031 12.343L40.9375 12.2071L40.0149 12.8698L40.1021 12.9952L40.1701 13.0929L40.2381 13.1927L40.3061 13.2904L40.3742 13.3903L40.4401 13.4922L40.5038 13.5921L40.5719 13.6919L40.6293 13.7854L41.5859 13.1736ZM40.2338 11.2745L40.1148 11.1237L39.9575 10.9283L39.8746 10.8284L39.7917 10.735L39.713 10.6373L39.6301 10.5395L39.5472 10.4461L39.4898 10.3824L38.6288 11.1364L38.7585 11.2873L38.8372 11.3765L38.9158 11.4678L38.9924 11.5613L39.071 11.6548L39.1476 11.7461L39.2241 11.8396L39.3389 11.984L40.2338 11.2745ZM38.6862 9.52631L38.5884 9.42648L38.4077 9.24592L38.3163 9.15882L38.2227 9.06748L38.1313 8.98038L37.9443 8.8062L37.8422 8.71274L37.0769 9.55182L37.1705 9.63892L37.2576 9.72176L37.3469 9.8046L37.6084 10.0531L37.6913 10.1402L37.7785 10.2231L37.872 10.3208L38.6862 9.52631ZM36.9685 7.95016L36.9005 7.8928L36.7985 7.81421L36.7007 7.73561L36.6008 7.65702L36.503 7.57842L36.4009 7.50195L36.301 7.42335L36.2011 7.34689L36.0502 7.23218L35.3763 8.14772L35.5166 8.25181L35.6144 8.32403L35.7079 8.39625L35.8057 8.47272L35.8992 8.54919L35.9928 8.62142L36.1798 8.77436L36.2479 8.83171L36.9685 7.95016ZM35.0893 6.56303L34.949 6.46956L34.8406 6.40159L34.7364 6.33361L34.628 6.26564L34.5196 6.19979L34.4048 6.13181L34.2963 6.06597L34.1879 6.00224L34.0986 5.94701L33.5162 6.92629L33.6033 6.97727L33.7075 7.03887L33.8074 7.1026L33.9116 7.1642L34.0115 7.23005L34.1157 7.29378L34.2156 7.3575L34.3176 7.42335L34.4537 7.51257L35.0893 6.56303ZM33.0761 5.38406L32.9571 5.32246L32.8444 5.26511L32.6148 5.1504L32.5 5.09729L32.2704 4.98258L32.1514 4.92523L32.0259 4.87212L31.5519 5.91301L31.6667 5.964L31.7751 6.01498L31.8899 6.07021L31.9983 6.12119L32.1131 6.17429L32.2215 6.22952L32.33 6.28263L32.4384 6.33786L32.5532 6.39521L33.0761 5.38406ZM30.9481 4.42181L30.8354 4.38357L30.7164 4.33684L30.4698 4.25187L30.3508 4.20514L30.2275 4.16478L29.9809 4.07981L29.8363 4.03307L29.4898 5.11007L29.6195 5.15256L29.7385 5.19292L29.8533 5.23328L29.9681 5.27576L30.0829 5.31612L30.4273 5.44358L30.5315 5.48394L30.9481 4.42181ZM28.7202 3.69534L28.6118 3.6656L28.4821 3.63374L28.3567 3.60188L28.2291 3.57001L28.1037 3.5424L27.974 3.51053L27.8486 3.48292L27.7189 3.45318L27.585 3.42556L27.3554 4.53867L27.4744 4.56416L27.5977 4.5939L27.721 4.61939L27.8401 4.64701L27.9634 4.67675L28.0824 4.70861L28.2057 4.73835L28.3248 4.77021L28.4332 4.79995L28.7202 3.69534ZM26.4392 3.20889L26.2882 3.18128L26.1586 3.16429L26.0246 3.14517L25.895 3.12817L25.761 3.10906L25.6271 3.09206L25.4974 3.07719L25.3635 3.06232L25.2763 3.05595L25.1615 4.1839L25.2402 4.19453L25.3678 4.20515L25.491 4.22426L25.6165 4.23913L25.744 4.254L25.8695 4.271L25.9928 4.29012L26.1203 4.30711L26.2606 4.32835L26.4392 3.20889ZM24.1156 2.96461C23.7266 2.94761 23.3397 2.93699 22.9507 2.93699V4.06707C23.3184 4.06707 23.6862 4.07769 24.0583 4.09468L24.1156 2.96461Z" fill="url(#paint0_linear_11780_3131)"/>
<defs>
<linearGradient id="paint0_linear_11780_3131" x1="45" y1="42.442" x2="0.319869" y2="38.6615" gradientUnits="userSpaceOnUse">
<stop stop-color="#261B97"/>
<stop offset="1" stop-color="#913DC4"/>
</linearGradient>
</defs>
</svg>
