<svg width="46" height="47" viewBox="0 0 46 47" fill="none" xmlns="http://www.w3.org/2000/svg">
<path d="M30.3016 20.7063C30.3016 19.3673 29.9045 18.0585 29.1607 16.9452C28.4168 15.8319 27.3595 14.9642 26.1225 14.4518C24.8855 13.9395 23.5243 13.8054 22.2111 14.0666C20.8979 14.3278 19.6917 14.9726 18.7449 15.9193C17.7981 16.8661 17.1534 18.0724 16.8922 19.3856C16.631 20.6988 16.765 22.0599 17.2774 23.2969C17.7898 24.5339 18.6575 25.5912 19.7708 26.3351C20.884 27.079 22.1929 27.476 23.5318 27.476C25.3267 27.4741 27.0475 26.7603 28.3167 25.4911C29.5858 24.2219 30.2997 22.5011 30.3016 20.7063ZM23.5318 25.8489C22.5147 25.8489 21.5204 25.5473 20.6747 24.9822C19.829 24.4171 19.1699 23.614 18.7807 22.6743C18.3914 21.7346 18.2896 20.7006 18.488 19.703C18.6864 18.7054 19.1762 17.7891 19.8954 17.0699C20.6146 16.3507 21.531 15.8609 22.5285 15.6624C23.5261 15.464 24.5601 15.5659 25.4998 15.9551C26.4395 16.3443 27.2427 17.0035 27.8078 17.8492C28.3728 18.6949 28.6745 19.6891 28.6745 20.7063C28.6726 22.0696 28.1301 23.3765 27.1661 24.3406C26.2021 25.3046 24.8952 25.847 23.5318 25.8489Z" fill="url(#paint0_linear_11780_3095)"/>
<path d="M17.5613 11.6937C18.3984 11.6939 19.2168 11.4459 19.9129 10.981C20.609 10.5161 21.1516 9.85516 21.472 9.08186C21.7925 8.30856 21.8765 7.4576 21.7133 6.63658C21.5501 5.81557 21.1471 5.06138 20.5553 4.46941C19.9634 3.87744 19.2094 3.47427 18.3884 3.31089C17.5674 3.14751 16.7164 3.23126 15.943 3.55155C15.1697 3.87183 14.5086 4.41427 14.0436 5.11026C13.5785 5.80625 13.3303 6.62452 13.3303 7.4616C13.3316 8.58343 13.7778 9.65895 14.5709 10.4523C15.3641 11.2456 16.4395 11.6921 17.5613 11.6937ZM17.5613 4.85456C18.0767 4.85435 18.5804 5.00699 19.009 5.29315C19.4375 5.57932 19.7716 5.98615 19.9689 6.46219C20.1662 6.93824 20.2178 7.4621 20.1174 7.96752C20.0169 8.47293 19.7688 8.93719 19.4044 9.30157C19.04 9.66595 18.5757 9.91407 18.0703 10.0146C17.5649 10.115 17.041 10.0634 16.565 9.86607C16.089 9.66877 15.6821 9.33473 15.396 8.90618C15.1098 8.47763 14.9572 7.97384 14.9574 7.45854C14.9593 6.76878 15.2343 6.10786 15.7223 5.62041C16.2103 5.13297 16.8716 4.8587 17.5613 4.85762V4.85456Z" fill="url(#paint1_linear_11780_3095)"/>
<path d="M27.2627 7.46182C28.0006 7.46182 28.722 7.243 29.3355 6.83304C29.9491 6.42309 30.4273 5.8404 30.7096 5.15867C30.992 4.47693 31.0659 3.72677 30.922 3.00305C30.778 2.27932 30.4227 1.61454 29.9009 1.09276C29.3791 0.570983 28.7143 0.215648 27.9906 0.07169C27.2669 -0.0722679 26.5167 0.00161666 25.835 0.284C25.1532 0.566384 24.5706 1.04458 24.1606 1.65813C23.7506 2.27167 23.5318 2.99301 23.5318 3.73091C23.5329 4.72008 23.9263 5.66842 24.6258 6.36787C25.3252 7.06731 26.2736 7.46074 27.2627 7.46182ZM27.2627 1.62711C27.6791 1.62711 28.0861 1.75058 28.4322 1.9819C28.7784 2.21323 29.0482 2.54202 29.2074 2.92668C29.3667 3.31135 29.4083 3.73461 29.327 4.14294C29.2457 4.55126 29.0452 4.9263 28.7507 5.22063C28.4562 5.51495 28.0811 5.71534 27.6727 5.79643C27.2644 5.87753 26.8411 5.83571 26.4565 5.67624C26.072 5.51677 25.7433 5.24684 25.5121 4.90057C25.281 4.55429 25.1577 4.14725 25.1579 3.73091C25.1585 3.17294 25.3804 2.63798 25.7751 2.24353C26.1697 1.84908 26.7048 1.62738 27.2627 1.62711Z" fill="url(#paint2_linear_11780_3095)"/>
<path d="M25.4866 21.4159C25.3247 21.1841 25.116 20.9887 24.8741 20.8422C24.6592 20.709 24.4246 20.6105 24.179 20.5503V18.6282C24.2514 18.6863 24.3177 18.7517 24.377 18.8232C24.447 18.9078 24.5006 19.0047 24.5352 19.109C24.5736 19.2262 24.5986 19.3475 24.6097 19.4703C24.6132 19.5437 24.6319 19.6156 24.6646 19.6814C24.6973 19.7472 24.7433 19.8055 24.7998 19.8525C24.8562 19.8995 24.9218 19.9343 24.9925 19.9546C25.0631 19.9749 25.1371 19.9804 25.21 19.9705C25.4723 19.9389 25.6642 19.749 25.7336 19.3693C25.7193 18.7834 25.5295 18.3046 25.162 17.9402C24.8893 17.6721 24.5499 17.4818 24.179 17.389V17.1705C24.1793 17.0496 24.1441 16.9312 24.0777 16.83C24.0114 16.7289 23.9167 16.6494 23.8056 16.6016C23.6945 16.5538 23.5718 16.5396 23.4527 16.5609C23.3336 16.5822 23.2234 16.638 23.1358 16.7214C23.0753 16.7792 23.0275 16.8491 22.9955 16.9264C22.9636 17.0037 22.948 17.0869 22.95 17.1705V17.3257C22.7492 17.3562 22.5522 17.4075 22.362 17.4788C22.0721 17.5817 21.8071 17.7445 21.5842 17.9565C21.3727 18.1572 21.2067 18.4009 21.0973 18.6711C20.9868 18.9543 20.9445 19.2596 20.9738 19.5622C21.0254 20.0947 21.2815 20.5865 21.6883 20.9341C22.0532 21.2275 22.4905 21.4168 22.9541 21.4823V23.4033C22.7137 23.3716 22.4844 23.2827 22.2855 23.1441C22.0812 23.0027 21.9316 22.7955 21.8618 22.5571C21.8453 22.421 21.7792 22.2957 21.6763 22.2052C21.5733 22.1146 21.4406 22.0651 21.3035 22.0661C21.2189 22.0604 21.1342 22.0737 21.0554 22.1049C20.9766 22.1362 20.9058 22.1847 20.8482 22.2468C20.7962 22.3075 20.7597 22.3798 20.7419 22.4577C20.7241 22.5356 20.7256 22.6167 20.7461 22.6939C20.7921 22.9761 20.8979 23.2452 21.0563 23.4833C21.2147 23.7213 21.4222 23.9227 21.6648 24.074C22.0569 24.3135 22.4965 24.4643 22.953 24.516V24.6385C22.9501 24.7273 22.9669 24.8156 23.0022 24.8972C23.0375 24.9787 23.0904 25.0514 23.1572 25.1101C23.2691 25.2074 23.4121 25.2617 23.5604 25.2632C23.7014 25.2619 23.8382 25.215 23.9503 25.1295C24.0251 25.0734 24.0852 25.0001 24.1257 24.9159C24.1662 24.8317 24.1859 24.739 24.1831 24.6456V24.5037C24.6567 24.4129 25.0262 24.223 25.2845 23.9372C25.5828 23.6272 25.7661 23.2245 25.804 22.796C25.823 22.5742 25.8109 22.3509 25.7683 22.1325C25.7244 21.8769 25.6285 21.633 25.4866 21.4159ZM22.9541 20.3359C22.8807 20.3154 22.8093 20.2884 22.7407 20.2553C22.5984 20.1874 22.4669 20.0986 22.3508 19.9919C22.2873 19.9351 22.2365 19.8656 22.2018 19.7878C22.1683 19.6924 22.1464 19.5934 22.1364 19.4928C22.1269 19.3559 22.1469 19.2187 22.1952 19.0902C22.2435 18.9618 22.3188 18.8453 22.4161 18.7486C22.5643 18.6019 22.7507 18.4997 22.9541 18.4536V20.3359ZM24.6894 22.7531C24.6829 22.8087 24.6696 22.8632 24.6496 22.9154C24.6251 22.9896 24.5874 23.0588 24.5383 23.1196C24.4615 23.2047 24.369 23.274 24.2657 23.3237C24.2399 23.3381 24.2129 23.3504 24.1851 23.3605V21.7272C24.2988 21.7774 24.4009 21.8503 24.4852 21.9416C24.6291 22.108 24.6975 22.3775 24.6894 22.7419V22.7531Z" fill="url(#paint3_linear_11780_3095)"/>
<path d="M6.97292 38.6022H15.9557V33.1329C15.9605 30.7972 15.2147 28.5217 13.8284 26.6419L11.3561 23.2733C10.7036 22.3881 9.85296 21.668 8.87221 21.1706C7.89145 20.6733 6.80785 20.4124 5.70819 20.409C5.70104 20.409 5.6939 20.409 5.6939 20.409C5.66248 20.4087 5.63155 20.4168 5.6044 20.4326C5.57726 20.4485 5.55491 20.4713 5.53976 20.4989C5.52319 20.5263 5.51443 20.5577 5.51443 20.5897C5.51443 20.6217 5.52319 20.6532 5.53976 20.6806L10.2914 29.698C10.3532 29.8115 10.3918 29.9362 10.405 30.0647C10.4182 30.1932 10.4057 30.3231 10.3683 30.4468C10.3309 30.5704 10.2693 30.6854 10.1871 30.7851C10.105 30.8848 10.0038 30.9672 9.88951 31.0275C9.77523 31.0878 9.65012 31.1247 9.52143 31.1363C9.39275 31.1478 9.26305 31.1337 9.13987 31.0947C9.01668 31.0558 8.90246 30.9927 8.80383 30.9093C8.7052 30.8258 8.62413 30.7236 8.56532 30.6086L3.81466 21.6054C3.63831 21.2818 3.54959 20.9177 3.55729 20.5492C3.56499 20.1807 3.66884 19.8206 3.85856 19.5046C4.05042 19.1813 4.32395 18.9141 4.65169 18.7299L3.59214 7.03902C3.47464 6.3766 3.20836 5.74948 2.81336 5.20489C2.41835 4.66031 1.90492 4.21245 1.31174 3.89506C0.823813 3.62864 0.508396 3.77052 0.393049 3.84198C0.272171 3.912 0.172077 4.01289 0.103021 4.13432C0.0339647 4.25575 -0.00157101 4.39335 5.32875e-05 4.53304V22.0709C0.00170889 23.8475 0.422799 25.5987 1.22906 27.1818L6.88922 38.25C6.93947 38.361 6.96789 38.4805 6.97292 38.6022Z" fill="url(#paint4_linear_11780_3095)"/>
<path d="M6.99639 40.7397H1.81702V46.8511H20.3113V40.7397H6.99639ZM17.5613 44.045C17.5615 44.3563 17.4694 44.6608 17.2966 44.9198C17.1237 45.1787 16.878 45.3806 16.5904 45.4999C16.3028 45.6192 15.9863 45.6505 15.6809 45.5899C15.3755 45.5293 15.0949 45.3795 14.8747 45.1594C14.6544 44.9393 14.5044 44.6588 14.4436 44.3535C14.3828 44.0481 14.4139 43.7316 14.533 43.4439C14.6521 43.1562 14.8539 42.9103 15.1127 42.7373C15.3716 42.5643 15.676 42.472 15.9873 42.472C16.4046 42.472 16.8048 42.6377 17.1 42.9327C17.3951 43.2276 17.5611 43.6277 17.5613 44.045Z" fill="url(#paint5_linear_11780_3095)"/>
<path d="M12.8587 22.0354L12.5147 18.1177C12.4388 17.2906 12.1976 16.4872 11.8056 15.755C11.4135 15.0228 10.8785 14.3767 10.2322 13.855L10.808 20.0633C11.5926 20.6068 12.2849 21.2726 12.8587 22.0354Z" fill="url(#paint6_linear_11780_3095)"/>
<path d="M8.74905 19.008L7.99879 10.9327C7.93548 10.232 7.67896 9.5626 7.25779 8.99906C6.83662 8.43551 6.26731 7.9999 5.61325 7.74072L6.59115 18.5027C7.32856 18.5813 8.05339 18.751 8.74905 19.008Z" fill="url(#paint7_linear_11780_3095)"/>
<path d="M35.19 20.0672L35.7657 13.8589C35.1199 14.3801 34.5852 15.0255 34.1931 15.757C33.8011 16.4885 33.5597 17.2912 33.4833 18.1175L33.1393 22.0312C33.7137 21.2713 34.406 20.6083 35.19 20.0672Z" fill="url(#paint8_linear_11780_3095)"/>
<path d="M40.3847 7.74072C39.7316 8.00066 39.1633 8.43659 38.7431 9.00008C38.3229 9.56357 38.0671 10.2325 38.0043 10.9327L37.254 19.008C37.9497 18.7511 38.6745 18.5814 39.4119 18.5027L40.3847 7.74072Z" fill="url(#paint9_linear_11780_3095)"/>
<path d="M30.0423 40.7397H25.6866V46.8511H44.1809V40.7397H30.0423ZM30.0086 45.619C29.6974 45.6186 29.3932 45.526 29.1347 45.3528C28.8761 45.1796 28.6746 44.9336 28.5558 44.6459C28.437 44.3583 28.4061 44.0419 28.4671 43.7367C28.5281 43.4315 28.6781 43.1512 28.8983 42.9313C29.1186 42.7113 29.399 42.5616 29.7043 42.5011C30.0096 42.4405 30.3259 42.4718 30.6134 42.591C30.9009 42.7102 31.1466 42.9119 31.3195 43.1707C31.4924 43.4295 31.5846 43.7338 31.5846 44.045C31.5846 44.4625 31.4188 44.8628 31.1236 45.158C30.8284 45.4532 30.4281 45.619 30.0106 45.619H30.0086Z" fill="url(#paint10_linear_11780_3095)"/>
<path d="M45.6069 3.84198C45.4896 3.77052 45.1741 3.62864 44.6883 3.89506C44.0951 4.21245 43.5816 4.66031 43.1866 5.20489C42.7916 5.74948 42.5254 6.3766 42.4079 7.03902L41.3463 18.7299C41.6744 18.915 41.948 19.1832 42.1394 19.5077C42.3291 19.8237 42.433 20.1838 42.4407 20.5522C42.4484 20.9207 42.3596 21.2848 42.1833 21.6084L37.4377 30.6126C37.3789 30.7277 37.2979 30.8299 37.1992 30.9134C37.1006 30.9968 36.9864 31.0599 36.8632 31.0988C36.74 31.1378 36.6103 31.1519 36.4816 31.1404C36.3529 31.1288 36.2278 31.0918 36.1136 31.0316C35.9993 30.9713 35.8981 30.8889 35.8159 30.7892C35.7337 30.6895 35.6721 30.5745 35.6348 30.4508C35.5974 30.3272 35.5849 30.1973 35.5981 30.0688C35.6113 29.9402 35.6499 29.8156 35.7116 29.7021L40.4633 20.6847C40.4799 20.6572 40.4886 20.6258 40.4886 20.5938C40.4886 20.5618 40.4799 20.5304 40.4633 20.503C40.4481 20.4754 40.4258 20.4525 40.3987 20.4367C40.3715 20.4209 40.3406 20.4127 40.3092 20.4131C40.3092 20.4131 40.302 20.4131 40.2949 20.4131C39.1952 20.4165 38.1116 20.6773 37.1309 21.1747C36.1501 21.6721 35.2994 22.3922 34.647 23.2774L32.1747 26.6459C30.7873 28.524 30.0398 30.798 30.0423 33.1329V38.6022H39.025C39.0304 38.4804 39.0591 38.3609 39.1098 38.25L44.7689 27.1818C45.5759 25.5988 45.9977 23.8477 45.9999 22.0709V4.53304C46.0016 4.39335 45.966 4.25575 45.897 4.13432C45.8279 4.01289 45.7278 3.912 45.6069 3.84198Z" fill="url(#paint11_linear_11780_3095)"/>
<defs>
<linearGradient id="paint0_linear_11780_3095" x1="30.3016" y1="26.1629" x2="16.867" y2="24.9757" gradientUnits="userSpaceOnUse">
<stop stop-color="#261B97"/>
<stop offset="1" stop-color="#913DC4"/>
</linearGradient>
<linearGradient id="paint1_linear_11780_3095" x1="21.7945" y1="10.8729" x2="13.3959" y2="10.1306" gradientUnits="userSpaceOnUse">
<stop stop-color="#261B97"/>
<stop offset="1" stop-color="#913DC4"/>
</linearGradient>
<linearGradient id="paint2_linear_11780_3095" x1="30.9936" y1="6.73817" x2="23.5897" y2="6.08386" gradientUnits="userSpaceOnUse">
<stop stop-color="#261B97"/>
<stop offset="1" stop-color="#913DC4"/>
</linearGradient>
<linearGradient id="paint3_linear_11780_3095" x1="25.8127" y1="24.4183" x2="20.743" y2="24.1569" gradientUnits="userSpaceOnUse">
<stop stop-color="#261B97"/>
<stop offset="1" stop-color="#913DC4"/>
</linearGradient>
<linearGradient id="paint4_linear_11780_3095" x1="15.9557" y1="35.2213" x2="0.0260569" y2="34.577" gradientUnits="userSpaceOnUse">
<stop stop-color="#261B97"/>
<stop offset="1" stop-color="#913DC4"/>
</linearGradient>
<linearGradient id="paint5_linear_11780_3095" x1="20.3113" y1="46.2584" x2="3.05147" y2="41.6425" gradientUnits="userSpaceOnUse">
<stop stop-color="#261B97"/>
<stop offset="1" stop-color="#913DC4"/>
</linearGradient>
<linearGradient id="paint6_linear_11780_3095" x1="12.8587" y1="21.2421" x2="10.2344" y2="21.1676" gradientUnits="userSpaceOnUse">
<stop stop-color="#261B97"/>
<stop offset="1" stop-color="#913DC4"/>
</linearGradient>
<linearGradient id="paint7_linear_11780_3095" x1="8.74905" y1="17.9153" x2="5.61515" y2="17.8382" gradientUnits="userSpaceOnUse">
<stop stop-color="#261B97"/>
<stop offset="1" stop-color="#913DC4"/>
</linearGradient>
<linearGradient id="paint8_linear_11780_3095" x1="35.7657" y1="21.2386" x2="33.1414" y2="21.1641" gradientUnits="userSpaceOnUse">
<stop stop-color="#261B97"/>
<stop offset="1" stop-color="#913DC4"/>
</linearGradient>
<linearGradient id="paint9_linear_11780_3095" x1="40.3847" y1="17.9153" x2="37.2559" y2="17.8384" gradientUnits="userSpaceOnUse">
<stop stop-color="#261B97"/>
<stop offset="1" stop-color="#913DC4"/>
</linearGradient>
<linearGradient id="paint10_linear_11780_3095" x1="44.1809" y1="46.2584" x2="26.9211" y2="41.6425" gradientUnits="userSpaceOnUse">
<stop stop-color="#261B97"/>
<stop offset="1" stop-color="#913DC4"/>
</linearGradient>
<linearGradient id="paint11_linear_11780_3095" x1="46" y1="35.2213" x2="30.0683" y2="34.5768" gradientUnits="userSpaceOnUse">
<stop stop-color="#261B97"/>
<stop offset="1" stop-color="#913DC4"/>
</linearGradient>
</defs>
</svg>
