<svg width="41" height="45" viewBox="0 0 41 45" fill="none" xmlns="http://www.w3.org/2000/svg">
<path d="M20.6243 21.249L21.3757 22.5472C22.9942 21.6105 24 19.8682 24 18C24 15.105 21.6442 12.75 18.75 12.75C15.8558 12.75 13.5 15.105 13.5 18C13.5 19.7625 14.3775 21.3983 15.8467 22.3748L16.677 21.126C15.627 20.4277 15 19.2593 15 18C15 15.9323 16.6823 14.25 18.75 14.25C20.8177 14.25 22.5 15.9323 22.5 18C22.5 19.3342 21.7815 20.5793 20.6243 21.249Z" fill="url(#paint0_linear_11780_3158)"/>
<path d="M9 18C9 21.273 10.629 24.3105 13.3583 26.1248L14.1885 24.876C11.8792 23.34 10.5 20.7697 10.5 18C10.5 13.4513 14.2013 9.75 18.75 9.75C23.2987 9.75 27 13.4513 27 18C27 20.7697 25.6208 23.34 23.3115 24.8752L24.1417 26.1248C26.871 24.3105 28.5 21.273 28.5 18C28.5 12.624 24.126 8.25 18.75 8.25C13.374 8.25 9 12.624 9 18Z" fill="url(#paint1_linear_11780_3158)"/>
<path d="M36.75 18.7501C36.75 18.2251 36.7268 17.6978 36.681 17.1841L35.187 17.3168C35.229 17.7863 35.25 18.2686 35.25 18.7501C35.25 24.5356 32.2995 29.8006 27.3578 32.8328L28.143 34.1116C33.5325 30.8041 36.75 25.0621 36.75 18.7501Z" fill="url(#paint2_linear_11780_3158)"/>
<path d="M18.75 2.25C22.0845 2.25 25.2967 3.24225 28.0387 5.11875L28.8855 3.88125C25.893 1.83225 22.389 0.75 18.75 0.75C16.5982 0.75 14.4915 1.12575 12.489 1.86825L13.0102 3.2745C14.8455 2.59425 16.7767 2.25 18.75 2.25Z" fill="url(#paint3_linear_11780_3158)"/>
<path d="M1.869 12.4888C1.1265 14.489 0.75 16.5958 0.75 18.7498C0.75 25.0633 3.96825 30.8053 9.3585 34.1083L10.1423 32.8295C5.2005 29.801 2.25 24.5375 2.25 18.7498C2.25 16.7743 2.595 14.8438 3.27525 13.0108L1.869 12.4888Z" fill="url(#paint4_linear_11780_3158)"/>
<path d="M22.5 30.0002C22.5 28.1859 21.2115 26.6732 19.5 26.3259V20.2502C20.3723 19.9404 21 19.1162 21 18.1382C21 16.8954 19.9928 15.8882 18.75 15.8882C17.5073 15.8882 16.5 16.8954 16.5 18.1382C16.5 19.1162 17.1277 19.9404 18 20.2502V26.3259C16.2885 26.6732 15 28.1859 15 30.0002C15 32.0709 16.6793 33.7502 18.75 33.7502C20.8207 33.7502 22.5 32.0709 22.5 30.0002Z" fill="url(#paint5_linear_11780_3158)"/>
<path d="M12 36.75V45H25.5V36.75C25.5 35.0932 24.291 33.75 22.8 33.75H18.75H14.7C13.209 33.75 12 35.0932 12 36.75Z" fill="url(#paint6_linear_11780_3158)"/>
<path d="M40.5 9.75C40.5 6.4365 37.8135 3.75 34.5 3.75C31.1865 3.75 28.5 6.4365 28.5 9.75C28.5 13.0635 31.1865 15.75 34.5 15.75C37.8135 15.75 40.5 13.0635 40.5 9.75ZM34.5 15C33.0338 15 31.71 14.3978 30.7575 13.4288C30.7957 11.8058 32.1172 10.5 33.75 10.5H34.5C33.2572 10.5 32.25 9.49275 32.25 8.25C32.25 7.00725 33.2572 6 34.5 6C35.7428 6 36.75 7.00725 36.75 8.25C36.75 9.49275 35.7428 10.5 34.5 10.5H35.25C36.8827 10.5 38.2043 11.8058 38.2425 13.4288C37.29 14.3978 35.9662 15 34.5 15Z" fill="url(#paint7_linear_11780_3158)"/>
<path d="M6 12C9.3135 12 12 9.3135 12 6C12 2.6865 9.3135 0 6 0C2.6865 0 0 2.6865 0 6C0 9.3135 2.6865 12 6 12ZM5.25 6.75H6C4.75725 6.75 3.75 5.74275 3.75 4.5C3.75 3.25725 4.75725 2.25 6 2.25C7.24275 2.25 8.25 3.25725 8.25 4.5C8.25 5.74275 7.24275 6.75 6 6.75H6.75C8.38275 6.75 9.70425 8.05575 9.7425 9.67875C8.79 10.6477 7.46625 11.25 6 11.25C4.53375 11.25 3.21 10.6477 2.2575 9.67875C2.29575 8.05575 3.61725 6.75 5.25 6.75Z" fill="url(#paint8_linear_11780_3158)"/>
<defs>
<linearGradient id="paint0_linear_11780_3158" x1="24" y1="21.5971" x2="13.5933" y2="20.6115" gradientUnits="userSpaceOnUse">
<stop stop-color="#261B97"/>
<stop offset="1" stop-color="#913DC4"/>
</linearGradient>
<linearGradient id="paint1_linear_11780_3158" x1="28.5" y1="24.3913" x2="9.17957" y2="22.5286" gradientUnits="userSpaceOnUse">
<stop stop-color="#261B97"/>
<stop offset="1" stop-color="#913DC4"/>
</linearGradient>
<linearGradient id="paint2_linear_11780_3158" x1="36.75" y1="32.47" x2="27.3803" y2="32.0105" gradientUnits="userSpaceOnUse">
<stop stop-color="#261B97"/>
<stop offset="1" stop-color="#913DC4"/>
</linearGradient>
<linearGradient id="paint3_linear_11780_3158" x1="28.8855" y1="4.69507" x2="14.114" y2="-0.204267" gradientUnits="userSpaceOnUse">
<stop stop-color="#261B97"/>
<stop offset="1" stop-color="#913DC4"/>
</linearGradient>
<linearGradient id="paint4_linear_11780_3158" x1="10.1422" y1="32.0116" x2="0.763822" y2="31.6516" gradientUnits="userSpaceOnUse">
<stop stop-color="#261B97"/>
<stop offset="1" stop-color="#913DC4"/>
</linearGradient>
<linearGradient id="paint5_linear_11780_3158" x1="22.5" y1="32.0179" x2="15.0103" y2="31.74" gradientUnits="userSpaceOnUse">
<stop stop-color="#261B97"/>
<stop offset="1" stop-color="#913DC4"/>
</linearGradient>
<linearGradient id="paint6_linear_11780_3158" x1="25.5" y1="43.909" x2="12.1501" y2="42.4933" gradientUnits="userSpaceOnUse">
<stop stop-color="#261B97"/>
<stop offset="1" stop-color="#913DC4"/>
</linearGradient>
<linearGradient id="paint7_linear_11780_3158" x1="40.5" y1="14.5862" x2="28.593" y2="13.534" gradientUnits="userSpaceOnUse">
<stop stop-color="#261B97"/>
<stop offset="1" stop-color="#913DC4"/>
</linearGradient>
<linearGradient id="paint8_linear_11780_3158" x1="12" y1="10.8362" x2="0.0929891" y2="9.78399" gradientUnits="userSpaceOnUse">
<stop stop-color="#261B97"/>
<stop offset="1" stop-color="#913DC4"/>
</linearGradient>
</defs>
</svg>
