<svg width="41" height="40" viewBox="0 0 41 40" fill="none" xmlns="http://www.w3.org/2000/svg">
<path d="M0 27.1885V28.1338V39.9996H8.11221V27.1885H0Z" fill="url(#paint0_linear_11780_3142)"/>
<path d="M10.7363 23.8311V24.7764V40.0002H18.8344V23.8311H10.7363ZM12.6268 25.7358H16.9298V38.1096H12.6268V25.7358Z" fill="url(#paint1_linear_11780_3142)"/>
<path d="M21.2752 19.626V20.5854V39.9997H29.3874V19.626H21.2752Z" fill="url(#paint2_linear_11780_3142)"/>
<path d="M31.9127 16.2681V17.2275V39.9997H40.0249V16.2681H31.9127ZM33.8173 18.1728H38.1203V38.1091H33.8173V18.1728Z" fill="url(#paint3_linear_11780_3142)"/>
<path d="M36.3579 0C34.3142 0 32.6334 1.68075 32.6334 3.72454C32.6334 4.08746 32.7017 4.4343 32.8003 4.76696L32.4924 4.95245L27.7069 7.81633L27.4769 7.95359C26.7966 7.23938 25.8421 6.78875 24.7874 6.78875C23.2517 6.78875 21.9298 7.73497 21.367 9.07392L16.0696 8.15391L15.7394 8.09456C15.4423 6.34204 13.912 4.99325 12.0779 4.99325C10.0343 4.99325 8.35341 6.66287 8.35341 8.70666C8.35341 9.60229 8.68684 10.417 9.22148 11.0623L5.0592 16.3709C4.68232 16.2411 4.28333 16.1557 3.86467 16.1557C1.82098 16.1557 0.140137 17.8364 0.140137 19.8803C0.140137 21.9241 1.82098 23.59 3.86467 23.59C5.90836 23.59 7.58921 21.9241 7.58921 19.8803C7.58921 18.941 7.22533 18.0862 6.64324 17.4282L10.7647 12.1752C11.1745 12.3319 11.6158 12.4312 12.0779 12.4312C13.6706 12.4312 15.0295 11.4044 15.5576 9.98651L15.732 10.0162L21.048 10.951L21.1222 10.9622C21.3474 12.7948 22.8975 14.2378 24.7874 14.2378C26.8311 14.2378 28.5119 12.5571 28.5119 10.5133C28.5119 10.2061 28.4646 9.90924 28.3932 9.62296L28.6825 9.45231L33.4643 6.58842L33.7797 6.39923C34.451 7.04685 35.3604 7.44907 36.3579 7.44907C38.4016 7.44907 40.0824 5.7684 40.0824 3.72454C40.0824 1.68075 38.4016 0 36.3579 0ZM24.7874 8.69182C25.8046 8.69182 26.6088 9.49601 26.6088 10.5133C26.6088 11.5306 25.8046 12.331 24.7874 12.331C23.7701 12.331 22.9696 11.5306 22.9696 10.5133C22.9696 9.49601 23.7701 8.69182 24.7874 8.69182ZM3.86467 18.0588C4.88191 18.0588 5.68613 18.863 5.68613 19.8803C5.68613 20.8975 4.88191 21.7017 3.86467 21.7017C2.84744 21.7017 2.04692 20.8975 2.04692 19.8803C2.04692 18.863 2.84744 18.0588 3.86467 18.0588Z" fill="url(#paint4_linear_11780_3142)"/>
<defs>
<linearGradient id="paint0_linear_11780_3142" x1="8.11221" y1="38.7572" x2="0.0253222" y2="38.3047" gradientUnits="userSpaceOnUse">
<stop stop-color="#261B97"/>
<stop offset="1" stop-color="#913DC4"/>
</linearGradient>
<linearGradient id="paint1_linear_11780_3142" x1="18.8344" y1="38.4321" x2="10.7522" y2="38.0744" gradientUnits="userSpaceOnUse">
<stop stop-color="#261B97"/>
<stop offset="1" stop-color="#913DC4"/>
</linearGradient>
<linearGradient id="paint2_linear_11780_3142" x1="29.3874" y1="38.0238" x2="21.2852" y2="37.7387" gradientUnits="userSpaceOnUse">
<stop stop-color="#261B97"/>
<stop offset="1" stop-color="#913DC4"/>
</linearGradient>
<linearGradient id="paint3_linear_11780_3142" x1="40.0249" y1="37.6983" x2="31.9201" y2="37.4534" gradientUnits="userSpaceOnUse">
<stop stop-color="#261B97"/>
<stop offset="1" stop-color="#913DC4"/>
</linearGradient>
<linearGradient id="paint4_linear_11780_3142" x1="40.0824" y1="21.3022" x2="1.01484" y2="15.4565" gradientUnits="userSpaceOnUse">
<stop stop-color="#261B97"/>
<stop offset="1" stop-color="#913DC4"/>
</linearGradient>
</defs>
</svg>
