<svg width="40" height="49" viewBox="0 0 40 49" fill="none" xmlns="http://www.w3.org/2000/svg">
<path d="M25.9595 19.284C25.5113 20.1133 24.6422 20.6344 23.6958 20.6344C23.2756 20.6344 22.861 20.5279 22.4855 20.3262C21.7739 19.9452 21.2753 19.2336 21.1632 18.4323C21.1352 18.2474 20.9951 18.1017 20.8102 18.0681C20.6253 18.0345 20.4404 18.1241 20.3513 18.2866L17.2466 24.0747L12.3158 21.4244C12.9769 21.1162 13.5317 20.6007 13.8903 19.9396C14.7812 18.2698 14.1536 16.1854 12.4895 15.2945C11.9908 15.0256 11.4305 14.8855 10.8645 14.8855C9.59823 14.8855 8.43837 15.5747 7.83883 16.6897C7.48583 17.3565 7.36256 18.1017 7.46902 18.8245L2.54382 16.1798L5.18852 11.249C5.4967 11.9102 6.01219 12.4649 6.67897 12.8235C7.17766 13.0925 7.73797 13.2326 8.29829 13.2326C9.56461 13.2326 10.7245 12.5378 11.324 11.4227C12.2205 9.75858 11.593 7.6742 9.92322 6.77769C9.27325 6.42469 8.51121 6.29582 7.7884 6.40788L10.4387 1.47708L16.2156 4.58124C16.3837 4.6709 16.5854 4.64288 16.7199 4.51401C16.86 4.38513 16.8936 4.18342 16.8151 4.00972C16.4677 3.28131 16.4957 2.41842 16.8768 1.70681C17.325 0.871938 18.1879 0.356445 19.1348 0.356445C19.5551 0.356445 19.9753 0.462906 20.3451 0.659017C20.9503 0.984002 21.3873 1.52191 21.5896 2.17748C21.7857 2.83305 21.7179 3.52785 21.3929 4.13299C21.0069 4.84459 20.3003 5.33767 19.4991 5.45534C19.3141 5.48336 19.1685 5.62344 19.1348 5.80834C19.1012 5.99325 19.1965 6.17815 19.359 6.2678L25.1415 9.37197L22.0317 15.1544C21.942 15.3225 21.9701 15.5243 22.0984 15.6587C22.2272 15.7988 22.4295 15.8324 22.6027 15.754C22.9445 15.5915 23.3255 15.5075 23.7009 15.5075C24.1211 15.5075 24.5414 15.6139 24.9112 15.81C25.5163 16.135 25.9534 16.6729 26.1551 17.3285C26.3517 17.9841 26.2789 18.6789 25.9595 19.284Z" fill="url(#paint0_linear_11780_3136)"/>
<path d="M39.6482 40.1615C39.6482 41.5735 38.4995 42.7222 37.0875 42.7222C36.2756 42.7222 35.508 42.3299 35.0255 41.68C34.9135 41.5281 34.7174 41.467 34.5381 41.5231C34.3644 41.5847 34.2416 41.7472 34.2416 41.9377V48.5046H28.6497C29.0867 47.9163 29.3277 47.1991 29.3277 46.4483C29.3277 44.5544 27.7924 43.0191 25.8985 43.0191C24.0046 43.0191 22.4638 44.5544 22.4638 46.4483C22.4638 47.1991 22.7103 47.9163 23.1473 48.5046H17.5548V42.9631C18.1319 43.3665 18.8211 43.5907 19.5327 43.5907H19.6112C21.5051 43.5907 23.0403 42.0498 23.0403 40.1615C23.0403 38.2676 21.5051 36.7268 19.6112 36.7268H19.5327C18.8211 36.7268 18.1319 36.9503 17.5548 37.3543V31.8128H24.1161C24.301 31.8128 24.4691 31.6951 24.5246 31.5164C24.5862 31.3371 24.5246 31.1409 24.3733 31.0345C23.7234 30.5526 23.3311 29.7794 23.3311 28.9725C23.3311 27.5599 24.4859 26.4062 25.8974 26.4062C27.31 26.4062 28.458 27.5605 28.458 28.9725C28.458 29.7788 28.0714 30.547 27.4209 31.0345C27.2696 31.1409 27.208 31.3371 27.2646 31.5164C27.3256 31.6951 27.4881 31.8128 27.6786 31.8128H34.2411V38.3797C34.2411 38.5702 34.3644 38.7383 34.5375 38.7938C34.7168 38.8504 34.9129 38.7882 35.025 38.6374C35.5068 37.9875 36.2745 37.5952 37.0869 37.5952C38.4995 37.5952 39.6482 38.7439 39.6482 40.1615Z" fill="url(#paint1_linear_11780_3136)"/>
<path d="M22.099 40.1609C22.099 41.556 20.9727 42.6991 19.5775 42.7215C18.7314 42.7097 17.9526 42.2895 17.4819 41.5841C17.3699 41.4216 17.1738 41.3543 16.9888 41.4098C16.8095 41.4608 16.6807 41.6339 16.6807 41.8244V48.5034H11.0943C11.5313 47.9151 11.7723 47.1979 11.7723 46.4471C11.7723 44.5532 10.237 43.0179 8.34314 43.0179C6.44926 43.0179 4.90839 44.5532 4.90839 46.4471C4.90839 47.1979 5.15493 47.9151 5.59198 48.5034H0V42.9064C0.582731 43.3429 1.29994 43.59 2.05637 43.59C3.95024 43.59 5.48552 42.0491 5.48552 40.1609C5.48552 38.267 3.95024 36.7261 2.05637 36.7261C1.29994 36.7261 0.582731 36.9721 0 37.4097V31.8177H6.56133C6.74623 31.8177 6.91433 31.6939 6.97036 31.5151C7.03199 31.3358 6.97036 31.1397 6.81907 31.0333C6.1691 30.5514 5.77688 29.7782 5.77688 28.9713C5.77688 27.5587 6.93114 26.4106 8.34314 26.4106C9.75514 26.4106 10.9038 27.5593 10.9038 28.9713C10.9038 29.7776 10.5172 30.5508 9.8672 31.0333C9.71592 31.1397 9.65428 31.3358 9.71032 31.5151C9.77195 31.6939 9.93444 31.8177 10.125 31.8177H16.6807V38.4967C16.6807 38.6872 16.8095 38.8553 16.9888 38.9108C17.1738 38.9674 17.3699 38.8945 17.4819 38.7371C17.947 38.0311 18.7314 37.6108 19.5719 37.594C20.9671 37.617 22.099 38.7601 22.099 40.1609Z" fill="url(#paint2_linear_11780_3136)"/>
<defs>
<linearGradient id="paint0_linear_11780_3136" x1="26.2639" y1="21.7745" x2="2.72766" y2="19.6944" gradientUnits="userSpaceOnUse">
<stop stop-color="#261B97"/>
<stop offset="1" stop-color="#913DC4"/>
</linearGradient>
<linearGradient id="paint1_linear_11780_3136" x1="39.6482" y1="46.3616" x2="17.7259" y2="44.4247" gradientUnits="userSpaceOnUse">
<stop stop-color="#261B97"/>
<stop offset="1" stop-color="#913DC4"/>
</linearGradient>
<linearGradient id="paint2_linear_11780_3136" x1="22.099" y1="46.3609" x2="0.171342" y2="44.4225" gradientUnits="userSpaceOnUse">
<stop stop-color="#261B97"/>
<stop offset="1" stop-color="#913DC4"/>
</linearGradient>
</defs>
</svg>
